HIERARCHY
ROOT Hips
{
 OFFSET 0.000000 0.000000 0.000000
 CHANNELS 6 Xposition Yposition Zposition Yrotation Xrotation Zrotation
 JOINT Chest
 {
  OFFSET 0.000000 10.354800 0.006500
  CHANNELS 3 Yrotation Xrotation Zrotation
  JOINT Chest2
  {
   OFFSET 0.000000 10.435800 -0.013200
   CHANNELS 3 Yrotation Xrotation Zrotation
   JOINT Chest3
   {
    OFFSET 0.000000 10.393700 0.000000
    CHANNELS 3 Yrotation Xrotation Zrotation
    JOINT Chest4
    {
     OFFSET 0.000000 10.383100 0.000000
     CHANNELS 3 Yrotation Xrotation Zrotation
     JOINT Neck
     {
      OFFSET 0.000000 15.694000 0.000000
      CHANNELS 3 Yrotation Xrotation Zrotation
      JOINT Head
      {
       OFFSET 0.000000 9.711000 -0.028000
       CHANNELS 3 Yrotation Xrotation Zrotation
       End Site
       {
        OFFSET 0.000000 18.578700 -0.014800
       }
      }
     }
     JOINT RightCollar
     {
      OFFSET -3.157200 10.367500 0.000000
      CHANNELS 3 Yrotation Xrotation Zrotation
      JOINT RightShoulder
      {
       OFFSET -14.482500 0.000000 0.000000
       CHANNELS 3 Yrotation Xrotation Zrotation
       JOINT RightElbow
       {
        OFFSET 0.000000 -31.707800 0.000000
        CHANNELS 3 Yrotation Xrotation Zrotation
        JOINT RightWrist
        {
         OFFSET 0.000000 -25.659300 0.000000
         CHANNELS 3 Yrotation Xrotation Zrotation
         End Site
         {
          OFFSET 0.000000 -18.994300 0.000000
         }
        }
       }
      }
     }
     JOINT LeftCollar
     {
      OFFSET 3.157200 10.367500 0.000000
      CHANNELS 3 Yrotation Xrotation Zrotation
      JOINT LeftShoulder
      {
       OFFSET 14.482500 0.000000 0.000000
       CHANNELS 3 Yrotation Xrotation Zrotation
       JOINT LeftElbow
       {
        OFFSET 0.000000 -31.707800 0.000000
        CHANNELS 3 Yrotation Xrotation Zrotation
        JOINT LeftWrist
        {
         OFFSET 0.000000 -25.659300 0.000000
         CHANNELS 3 Yrotation Xrotation Zrotation
         End Site
         {
          OFFSET 0.000000 -18.994300 0.000000
         }
        }
       }
      }
     }
    }
   }
  }
 }
 JOINT RightHip
 {
  OFFSET -8.365600 -0.032100 -0.003200
  CHANNELS 3 Yrotation Xrotation Zrotation
  JOINT RightKnee
  {
   OFFSET 0.000000 -43.980000 0.003100
   CHANNELS 3 Yrotation Xrotation Zrotation
   JOINT RightAnkle
   {
    OFFSET 0.000000 -42.882800 0.005200
    CHANNELS 3 Yrotation Xrotation Zrotation
    JOINT RightToe
    {
     OFFSET 0.000000 -4.915500 10.826300
     CHANNELS 3 Yrotation Xrotation Zrotation
     End Site
     {
      OFFSET 0.000000 -1.517500 6.175900
     }
    }
   }
  }
 }
 JOINT LeftHip
 {
  OFFSET 8.365600 -0.032100 -0.003200
  CHANNELS 3 Yrotation Xrotation Zrotation
  JOINT LeftKnee
  {
   OFFSET 0.000000 -43.980000 0.003100
   CHANNELS 3 Yrotation Xrotation Zrotation
   JOINT LeftAnkle
   {
    OFFSET 0.000000 -42.882800 0.005200
    CHANNELS 3 Yrotation Xrotation Zrotation
    JOINT LeftToe
    {
     OFFSET 0.000000 -4.915500 10.826300
     CHANNELS 3 Yrotation Xrotation Zrotation
     End Site
     {
      OFFSET 0.000000 -1.517500 6.175900
     }
    }
   }
  }
 }
}
MOTION
Frames: 6
Frame Time: 0.008333
0.000000 91.618600 0.000000 0.000000 -5.767877 0.000000 0.000000 11.653817 0.000000 0.000000 -5.885947 0.000000 0.000000 -0.000000 0.000000 0.000000 -0.000000 0.000000 0.000000 12.528835 0.000000 0.000000 0.711642 0.000000 0.000000 -0.000000 0.000000 0.000000 0.000000 -90.000000 0.000000 -2.309062 0.000000 0.000000 2.309062 0.000000 0.000000 -0.000000 0.000000 0.000000 -0.000000 90.000000 0.000000 -2.309062 0.000000 0.000000 2.309062 0.000000 0.000000 8.520406 0.000000 0.000000 1.905762 0.000000 -0.000000 -4.658285 0.000000 0.000000 -0.000000 0.000000 0.000000 8.520406 0.000000 0.000000 1.905762 0.000000 -0.000000 -4.658285 0.000000 0.000000 -0.000000 0.000000
2.445229 126.455786 42.746373 173.923091 -19.438675 -1.504004 -0.561970 12.801756 4.299140 -0.078162 1.046507 0.353016 -0.134175 1.775756 0.596696 -0.554233 11.564429 3.847494 1.344545 18.720170 -3.760614 2.306167 -5.872116 -4.322816 4.015444 5.843628 -4.722649 14.642031 -23.930092 -9.525246 -68.506348 -36.478427 100.423799 -31.193907 -19.699429 -34.967152 -2.423980 9.982998 0.552913 10.245089 -16.126180 -14.142008 84.173379 -46.014185 -112.623031 29.835173 -10.614738 42.449409 9.489304 -62.392114 -8.131637 -96.246352 79.299178 -90.306435 5.234282 3.797304 -17.130555 -0.006969 -0.003541 -0.003164 -21.349948 -63.887065 1.400610 85.619556 84.074095 79.366991 -7.239381 -23.323676 -3.025635 0.000362 -0.053358 0.000164
2.439172 126.455351 42.746709 173.924808 -19.432663 -1.469629 -0.567177 12.795912 4.266528 -0.076656 1.046548 0.352525 -0.133258 1.775211 0.597513 -0.551447 11.563788 3.849440 1.344420 18.722374 -3.765566 2.307878 -5.868122 -4.326566 4.008393 5.841970 -4.722997 14.662204 -23.920237 -9.521559 -68.529435 -36.482643 100.473296 -31.193540 -19.703857 -34.987515 -2.424918 9.977497 0.551061 10.243325 -16.123659 -14.139851 84.183576 -46.024634 -112.636720 29.835208 -10.617407 42.411878 9.551266 -62.394035 -8.203884 -96.231096 79.298095 -90.304175 5.221950 3.794224 -17.117508 -0.005991 0.000614 -0.002720 -21.299920 -63.909305 1.344662 85.165343 84.068781 78.911390 -7.343539 -23.045911 -3.042160 -0.001561 -0.018640 -0.000708
2.438001 126.455189 42.747438 173.929703 -19.428357 -1.463623 -0.566680 12.792405 4.261296 -0.081641 1.045576 0.351844 -0.127418 1.773915 0.599928 -0.548040 11.564253 3.851754 1.346929 18.726916 -3.771311 2.333000 -5.854315 -4.351112 4.000203 5.839865 -4.725345 14.665940 -23.914384 -9.519224 -68.546219 -36.482237 100.530165 -31.192093 -19.707508 -35.007428 -2.432143 9.976675 0.548267 10.247266 -16.126193 -14.138171 84.212543 -46.035536 -112.678993 29.845271 -10.609849 42.422795 9.559487 -62.399691 -8.214593 -96.234477 79.290961 -90.314475 5.235481 3.793776 -17.115840 -0.002874 -0.000957 -0.001305 -21.294871 -63.920470 1.333198 84.720359 84.057854 78.474152 -7.437977 -22.739396 -3.072159 -0.003176 -0.010066 -0.001442
2.437987 126.455921 42.746055 173.925686 -19.438316 -1.460018 -0.556340 12.800311 4.264668 -0.081575 1.045912 0.352002 -0.128479 1.772911 0.596810 -0.547903 11.565608 3.853025 1.370270 18.733968 -3.782225 2.311900 -5.855966 -4.340956 3.998647 5.837821 -4.727660 14.669609 -23.904687 -9.513826 -68.564427 -36.489129 100.563307 -31.190702 -19.709443 -35.017228 -2.433858 9.976407 0.547148 10.275869 -16.136661 -14.131697 84.181722 -46.025547 -112.670851 29.845410 -10.607526 42.419946 9.563847 -62.389756 -8.214707 -96.231910 79.289597 -90.315684 5.269841 3.793044 -17.120204 0.000637 -0.003176 0.000289 -21.285824 -63.909679 1.315280 84.424001 84.038895 78.179576 -7.471457 -22.461509 -3.110080 -0.003256 -0.000926 -0.001478
2.439489 126.456735 42.744963 173.920384 -19.448524 -1.464639 -0.537852 12.801017 4.275343 -0.086546 1.050320 0.350091 -0.133634 1.776035 0.597248 -0.542340 11.564759 3.854765 1.377852 18.736142 -3.788617 2.305575 -5.852486 -4.339625 3.997222 5.839336 -4.729158 14.666566 -23.887768 -9.491283 -68.581972 -36.515212 100.601056 -31.187888 -19.711046 -35.025993 -2.431511 9.975794 0.544947 10.274510 -16.141378 -14.125482 84.172083 -46.022050 -112.665782 29.844979 -10.606662 42.419159 9.556805 -62.381092 -8.195482 -96.241253 79.283789 -90.326904 5.287730 3.791244 -17.121114 0.002713 -0.004871 0.001232 -21.289675 -63.895376 1.314203 84.142214 84.023029 77.900099 -7.486715 -22.200167 -3.153372 -0.001626 0.004177 -0.000738
